<svg width="109" height="81" viewBox="0 0 109 81" fill="none" xmlns="http://www.w3.org/2000/svg">
<g clip-path="url(#clip0)">
<path d="M22.9295 51.8739C22.128 51.9389 21.1551 52.1867 20.1241 52.5411C19.6888 52.7515 19.295 52.4026 19.3226 51.9057C19.3765 51.1901 20.8981 50.5451 22.8218 50.3942C24.3101 50.2752 26.0514 50.3776 27.4334 51.1361C31.506 47.8141 33.7904 32.7859 15.2334 35.2733C0.265254 37.9033 1.27547 45.6464 0.142257 61.1438C-0.50865 70.2033 0.652202 74.8002 12.6905 73.906C24.2562 73.1586 30.3507 68.9977 30.9588 60.3894C31.3568 54.8125 27.4486 51.5182 22.9295 51.8739ZM13.4865 62.7578C11.9664 61.8816 12.4763 59.8302 14.5617 59.4537C16.0017 59.2655 16.7107 59.6904 16.6347 60.8476C16.3293 62.9419 14.2494 63.1135 13.4865 62.7578V62.7578ZM13.6966 50.2267C12.4874 50.2267 12.1101 48.012 13.9163 47.0721C14.3572 46.841 17.0341 46.2915 16.8986 48.2238C16.5877 50.2101 13.8417 50.3665 13.6966 50.2267Z" fill="#FFFCD4"/>
<path d="M50.1392 61.4123C49.2423 61.3639 48.3427 61.321 47.4361 61.2739C48.0681 52.5674 48.6951 43.8553 49.317 35.1376C47.2374 33.9768 44.8942 33.3728 42.5135 33.3839C40.2181 33.3936 37.8383 34.0192 35.4144 35.1833L33.5114 61.9079C32.8563 71.1183 34.7952 73.643 49.2658 73.6001C52.7028 71.528 52.8963 62.3065 50.1392 61.4123Z" fill="#FFFCD4"/>
<path d="M76.0801 46.5711C73.2996 46.0797 70.6214 46.261 70.2234 47.349L69.1744 61.6643C69.0979 61.8856 68.9475 62.0738 68.7487 62.1971C68.5498 62.3204 68.3146 62.3712 68.0827 62.3411C67.8249 62.3004 67.5874 62.1766 67.4061 61.9885C67.2248 61.8004 67.1096 61.5583 67.078 61.2988C67.4244 56.5511 67.7717 51.8038 68.12 47.0569C67.3475 45.8596 64.7038 44.8865 61.7961 44.5917C59.4163 44.3467 57.0518 44.6678 55.7445 45.7807C54.3887 64.5032 52.4996 70.0981 58.8028 73.3967C59.9249 74.0196 61.3373 74.3822 63.0703 74.5635C65.1946 74.7738 67.3385 74.6566 69.4273 74.2161C69.0127 73.3648 67.9072 70.357 69.097 70.0511C71.1548 69.5874 68.3618 75.7622 74.6747 76.6467C75.8128 76.8354 76.9721 76.8596 78.1172 76.7187C81.3662 76.5111 80.7429 72.1163 80.6987 68.9839C81.1778 62.4671 81.6582 55.9503 82.1401 49.4336C81.7904 48.3345 78.909 47.0611 76.0801 46.5711Z" fill="#FFFCD4"/>
<path d="M101.637 59.6143C101.432 59.6419 101.222 59.6627 101.029 59.6793C101.008 59.797 100.976 59.9124 100.933 60.024C100.417 61.332 98.4183 61.7681 96.4669 60.9929C95.3213 60.5403 94.4506 59.7762 94.0264 58.9581C91.4132 58.2007 88.9307 57.0482 86.6646 55.5406C82.9996 61.2365 83.3216 71.2816 89.2904 76.7076C91.4241 78.6551 94.0899 79.7653 96.8414 80.3951C100.786 81.2823 104.634 81.1162 106.731 80.3951C109.648 79.9217 106.785 71.0615 103.758 71.4809C102.277 72.0604 100.652 72.1639 99.1093 71.7771C96.0454 71.002 93.9172 68.3914 94.0139 67.1373C94.0955 66.6473 94.3207 66.4812 94.687 66.5726C94.8473 66.6099 94.9868 66.7553 95.1375 66.9546C96.062 68.6876 97.4702 69.5846 99.0775 69.9998C102.532 70.8774 106.66 69.0793 107.95 65.0264C108.917 62.4422 108.461 59.934 107.112 57.7747C105.862 58.6135 104.104 59.3028 101.637 59.6143Z" fill="#FFFCD4"/>
<path d="M35.6023 29.6687C42.7982 29.2604 46.5876 26.7079 47.0173 21.4383C47.302 18.0208 44.9002 15.9694 42.0948 16.1203C41.4999 16.1708 40.9133 16.2935 40.348 16.4857C40.0716 16.6103 39.8311 16.3833 39.8588 16.0829C39.8905 15.6358 40.8413 15.2648 42.0354 15.1998C42.9599 15.1513 44.0392 15.2427 44.8891 15.7272C47.425 13.6813 48.9576 4.66471 37.403 5.63918C28.0512 6.67871 28.622 11.5718 27.8356 21.4328C27.3782 27.1827 28.0941 30.1587 35.6023 29.6687ZM36.5158 12.9491C36.7922 12.8204 38.4616 12.5518 38.3648 13.7464C38.1658 14.9742 36.4508 15.006 36.3596 14.9146C35.6023 14.8814 35.3936 13.4875 36.5158 12.9491V12.9491ZM36.8488 20.6798C37.7457 20.5884 38.1866 20.8625 38.1285 21.5781C37.924 22.8751 36.6388 22.9623 36.1606 22.7256C35.2209 22.1539 35.5484 20.8791 36.8488 20.6798Z" fill="#FFFCD4"/>
<path d="M55.9615 28.488C56.3014 24.3871 56.6409 20.2867 56.98 16.1867C57.0587 15.2468 55.1959 14.7375 53.2597 14.7209C51.3899 14.7015 49.4413 15.1693 49.1138 16.0054C48.7748 20.133 48.4357 24.2635 48.0967 28.3966C48.2805 28.9849 49.961 29.2618 51.9275 29.3047C53.894 29.3476 55.9062 29.151 55.9615 28.488Z" fill="#FFFCD4"/>
<path d="M56.8707 11.176C57.809 9.70595 57.8781 7.71549 56.7159 6.27178C54.7273 3.72072 50.7914 5.53816 50.5095 8.99033C50.1723 13.1069 54.7134 14.2267 56.8707 11.176Z" fill="#FFFCD4"/>
<path d="M61.6509 27.3377C61.8237 27.6672 61.7753 27.8706 61.5334 27.9952C55.895 31.1872 55.5785 40.6993 64.2684 41.4219C74.8888 42.5998 76.2542 29.1427 66.4021 27.3031C65.7194 27.2436 65.8756 25.6241 66.5583 25.6878C68.2028 25.8816 69.5986 26.3937 70.6696 27.1896C73.1254 25.8982 74.0444 23.0454 74.4687 20.1303C75.2757 14.5755 72.024 15.5334 74.0444 11.1247C74.904 9.25191 76.0123 3.45355 74.6193 2.05967C74.0665 1.6015 73.7224 1.42986 73.0563 1.70947C72.0129 2.15102 71.4864 9.82774 69.6014 11.5981C68.5594 11.205 68.3576 11.2701 67.451 11.1829C67.328 11.1718 67.2092 11.1718 67.0862 11.1663C65.8991 8.6844 67.7634 1.0409 66.8706 0.34604C66.275 -0.110743 65.9032 -0.0844429 65.2122 0.195163C63.3798 1.13226 62.6542 7.21023 62.885 9.3848C63.0619 11.0458 62.6321 11.8334 62.0199 12.6847C57.8298 15.8946 57.3668 23.2308 60.2593 26.0574C60.7222 26.4726 61.1893 26.9073 61.6509 27.3377ZM65.5964 18.5481C65.7471 17.8962 66.5044 17.4283 67.1608 17.4934C67.8173 17.5584 68.4709 18.1495 68.3535 19.5807C68.344 19.7828 68.2938 19.981 68.2061 20.1632C68.1183 20.3454 67.9947 20.5081 67.8427 20.6413C67.6907 20.7746 67.5134 20.8757 67.3214 20.9387C67.1295 21.0017 66.9268 21.0252 66.7255 21.0078C65.9184 20.9359 65.2302 20.1676 65.5964 18.5481ZM62.1415 34.04C62.4179 33.3617 63.0937 33.233 63.9961 33.3133C64.9358 33.3936 66.1838 33.7285 67.451 33.8517C68.9988 34.0234 68.1171 35.564 64.9455 35.2622C62.4525 35.0311 61.6896 35.1653 62.1457 34.04H62.1415Z" fill="#FFFCD4"/>
<path d="M86.5831 54.5274C86.726 54.6893 86.8822 54.8388 87.0502 54.9745C87.9263 55.7012 89.8141 56.7988 93.7472 57.7678C94.376 57.9242 95.0587 58.0751 95.7953 58.2259L96.3854 58.3394C97.2166 58.4915 98.0567 58.5905 98.9006 58.6357V58.6357C99.5688 58.6684 100.238 58.661 100.906 58.6135C101.537 58.5718 102.165 58.4928 102.787 58.3768C104.437 58.064 105.668 57.574 106.576 57.0037C108.952 55.5074 109.14 53.4782 108.925 52.7127C108.9 52.6152 108.853 52.5248 108.787 52.4483C108.244 51.9154 106.454 51.233 105.906 49.6287C105.357 48.0245 106.224 41.6295 95.8022 42.2372C88.0203 42.6898 87.5421 46.9102 87.6486 48.956C88.229 49.219 88.8923 49.4834 89.5999 49.7353C89.5778 48.9823 89.6427 47.3822 90.4968 46.4686C91.6024 45.2838 94.2806 44.3923 96.4241 44.229C98.5371 44.0726 97.1233 45.8499 96.7309 47.6895C96.4724 48.9103 96.4835 50.5049 96.9465 51.4199C97.6278 51.4985 98.3129 51.5397 98.9987 51.5431C99.5846 51.5431 100.15 51.6621 101.16 51.6884C101.696 51.7535 101.799 51.9736 101.627 52.2532C101.525 52.4206 101.229 52.53 100.783 52.5771C100.125 52.6324 99.4633 52.6106 98.8107 52.512C98.2137 52.4373 94.926 52.1618 91.8083 51.5804C90.2494 51.2842 88.7334 50.9133 87.6168 50.4454C87.2879 51.0586 86.3371 51.2261 85.8534 52.6089C85.577 53.4117 86.3053 54.1592 86.3053 54.1592C86.3792 54.295 86.4729 54.419 86.5831 54.5274V54.5274Z" fill="#FFFCD4"/>
</g>
<defs>
<clipPath id="clip0">
<rect width="109" height="81" fill="white"/>
</clipPath>
</defs>
</svg>
