<svg width="127" height="198" viewBox="0 0 127 198" fill="none" xmlns="http://www.w3.org/2000/svg">
<path d="M63.3585 0C10.5544 0 -14.7241 62.9237 8.86922 87.5339C15.0484 93.9661 22.0702 97.0424 30.2155 97.0424C38.08 97.0424 45.6636 93.9661 51.281 87.5339C65.3246 73.5508 56.0558 62.6441 63.0777 62.6441C71.7847 62.6441 63.6394 99.839 33.0243 102.915C34.4286 118.576 46.787 131.441 63.0777 131.441C118.971 131.441 148.744 60.4068 108.298 19.017C95.9398 6.4322 81.0535 0 63.3585 0ZM76.5596 138.992C73.47 138.432 70.6612 138.153 68.1334 138.153C26.8451 138.153 28.2494 198 64.2012 198C93.4119 198 102.119 156.61 75.9978 143.186C79.3683 142.068 79.0874 143.186 76.5596 138.992Z" fill="#13A5B5"/>
</svg>
