<svg width="144" height="78" viewBox="0 0 144 78" fill="none" xmlns="http://www.w3.org/2000/svg">
<g clip-path="url(#clip0)">
<path d="M76.6489 0.603149C77.852 0.702616 79.0551 0.816293 80.2725 0.901551C87.3048 1.4131 94.0363 3.11825 100.41 6.05963C114.704 12.6813 124.93 23.239 131.131 37.6333C131.475 38.4433 131.246 38.7843 130.358 38.7843C127.895 38.7701 128.425 39.0543 127.436 36.9513C121.865 25.0578 113.243 16.049 101.513 9.95306C96.5857 7.39533 91.3867 5.63334 85.9298 4.59604C81.1891 3.70084 76.3911 3.43086 71.5644 3.70084C69.545 3.81452 67.5541 4.14134 65.549 4.3829C65.4344 4.39711 65.3198 4.39711 65.105 4.41132C65.2053 3.54453 65.2482 2.72038 65.4344 1.93885C65.4917 1.69729 65.9787 1.42731 66.2938 1.39889C68.7572 1.14311 71.2207 0.958389 73.6842 0.745245C73.9133 0.731036 74.1425 0.659988 74.3716 0.603149C75.1164 0.603149 75.8755 0.603149 76.6489 0.603149Z" fill="white"/>
<path d="M143.033 54.2159C142.733 54.6421 142.332 54.7558 141.816 54.7558C139.367 54.7274 136.903 54.7416 134.454 54.7416C134.196 54.7416 133.939 54.7416 133.581 54.7416C133.581 56.0631 133.624 57.3135 133.566 58.564C133.509 60.056 133.38 61.5338 133.28 63.0116C133.237 63.5658 132.965 63.8784 132.363 63.85C131.891 63.8357 131.404 63.85 130.931 63.85C130.215 63.8357 130.029 63.5942 130.057 62.8837C130.186 60.4397 130.315 57.9814 130.43 55.5373C130.444 55.31 130.415 55.0684 130.401 54.7842C130.115 54.77 129.857 54.7558 129.599 54.7558C127.15 54.7558 124.686 54.7558 122.237 54.7558C121.335 54.7558 121.149 54.5569 121.134 53.6759C121.134 53.3206 121.134 52.9654 121.134 52.6102C121.149 51.7434 121.349 51.5444 122.252 51.5444C124.658 51.5444 127.064 51.5444 129.47 51.5444C129.728 51.5444 129.971 51.5444 130.372 51.5444C130.072 49.2141 129.799 46.9974 129.499 44.7807C129.427 44.2265 129.284 43.6723 129.198 43.104C129.098 42.4787 129.298 42.2087 129.957 42.2087C132.721 42.2087 132.263 41.9388 132.635 44.2549C133.022 46.6279 133.265 49.0151 133.581 51.5018C133.752 51.516 133.996 51.5302 134.254 51.5302C136.774 51.5302 139.31 51.5444 141.83 51.516C142.36 51.516 142.761 51.6297 143.033 52.0844C143.033 52.7949 143.033 53.5054 143.033 54.2159Z" fill="white"/>
<path d="M47.6889 51.3882C47.1733 49.1146 46.0275 47.1253 44.6383 45.2781C41.4587 41.0578 37.3768 37.8749 32.765 35.3313C26.5633 31.9068 19.975 29.6049 12.8424 29.0933C9.57693 28.8518 6.3687 29.2496 3.23209 30.1306C1.58501 30.5853 0.525148 31.6511 0.0668297 33.2852C-0.0620723 33.7541 -0.00478251 34.223 0.48218 34.4504C1.48475 34.9335 2.54461 35.0187 3.61879 34.7345C4.10576 34.5924 4.17737 34.1235 3.77634 33.8109C3.5615 33.6404 3.27506 33.5551 3.00293 33.4983C2.6019 33.3988 2.18655 33.342 1.7712 33.271C1.75688 33.1999 1.75688 33.1147 1.74256 33.0436C2.48732 32.8589 3.23209 32.6315 3.97686 32.5178C7.50018 32.0063 11.0092 32.2052 14.5038 32.7878C22.1234 34.0383 29.1127 36.8091 35.3 41.4415C38.3794 43.7434 40.9717 46.4859 42.5472 50.0525C44.0367 53.4201 43.4209 56.7594 40.8571 59.1466C39.5824 60.326 38.0643 61.1217 36.4172 61.6617C32.0918 63.0969 27.6805 63.1821 23.2119 62.4432C22.8252 62.3864 22.7249 62.1875 22.7106 61.818C22.6963 60.4539 22.6533 59.0756 22.639 57.7114C22.6247 55.6653 22.639 53.6049 22.639 51.3171C24.7301 51.6013 26.8355 51.8145 28.9122 52.1839C30.1869 52.4113 31.4616 52.7807 32.6933 53.2212C33.7246 53.5764 33.7818 54.2727 32.9082 54.9548C32.5788 55.2106 32.1777 55.3811 31.8197 55.6226C31.6765 55.7221 31.4759 55.8926 31.4759 56.0205C31.4759 56.1484 31.6908 56.3189 31.834 56.3899C33.2806 57.072 34.9849 56.6457 36.0734 55.3242C37.0903 54.088 37.119 52.596 36.1307 51.2745C35.4433 50.3651 34.5553 49.7114 33.4954 49.2709C31.4616 48.4184 29.3132 47.9637 27.1362 47.7363C25.6324 47.58 24.0999 47.5658 22.5101 47.4947C22.4814 47.239 22.4385 46.969 22.4242 46.699C22.3525 45.7328 22.3382 44.7665 22.2093 43.8003C22.0375 42.4646 21.7796 41.1289 20.9203 40.0205C20.6768 39.7079 20.2185 39.4521 19.8175 39.4095C19.6599 39.3953 19.3019 39.9921 19.2446 40.3331C18.9295 42.6493 18.643 44.9654 18.4282 47.2816C18.3709 47.85 18.1847 48.0347 17.6548 48.1342C16.3658 48.3899 15.0911 48.6599 13.8307 49.0152C11.9545 49.5551 10.1212 50.2372 8.56004 51.4592C7.04186 52.6528 6.76973 54.159 7.80095 55.7647C8.17333 56.3473 8.57436 56.9015 9.03268 57.413C11.4532 60.056 14.3606 62.0454 17.5975 63.5658C18.0701 63.7931 18.2563 64.0631 18.3136 64.5605C18.3996 65.2994 18.4998 66.0667 18.729 66.7772C19.087 67.8287 19.975 68.1981 21.307 67.985C22.1664 67.8429 22.5387 67.3313 22.6247 66.2372C22.639 66.0525 22.6533 65.8677 22.6533 65.6688C22.7536 65.6688 22.8252 65.6546 22.8825 65.6688C23.0687 65.6972 23.2549 65.7399 23.441 65.7825C28.0672 66.8056 32.6647 66.7772 37.2192 65.4272C40.6137 64.4184 43.6643 62.8695 45.7554 59.8571C47.6173 57.2709 48.3764 54.4717 47.6889 51.3882ZM18.2563 61.0933C17.4256 60.7523 16.6379 60.4823 15.8931 60.1271C13.487 58.9619 11.224 57.5693 9.31913 55.6653C7.97282 54.3153 8.08739 53.6333 9.90634 53.0223C12.5846 52.1129 15.3775 51.8003 18.2563 51.6297V61.0933Z" fill="white"/>
<path d="M116.709 50.5213C116.007 48.1483 114.288 47.4236 112.083 48.5746C111.553 48.8445 111.023 49.1571 110.607 49.5692C109.433 50.706 108.244 51.8428 107.184 53.079C106.11 54.3294 105.179 55.7078 104.105 57.1287C104.091 56.7593 104.005 56.4609 104.076 56.2193C104.406 55.0541 104.692 53.8463 105.179 52.738C105.68 51.6012 106.425 50.5639 106.984 49.4413C107.299 48.8019 107.471 48.0772 107.628 47.3667C107.686 47.0825 107.499 46.7557 107.428 46.4431C107.127 46.5568 106.769 46.5994 106.554 46.7984C104.492 48.6456 102.888 50.8339 101.928 53.4342C101.112 55.6509 100.868 57.896 101.899 60.1127C102.114 60.5674 102.1 60.9227 101.899 61.3632C100.438 64.5603 99.1924 67.8143 98.7484 71.3241C98.4763 73.4271 98.8343 75.3454 100.481 76.8374C100.882 77.2069 101.527 77.5763 102.014 77.5053C102.687 77.42 102.587 76.6243 102.658 76.0843C103.246 71.8783 104.391 67.8285 106.024 63.8925C106.182 63.523 106.339 63.3809 106.769 63.4662C107.929 63.7078 109.075 63.5515 110.12 63.0683C113.415 61.5621 115.62 59.0612 116.68 55.6367C117.196 53.96 117.21 52.2264 116.709 50.5213ZM114.704 54.031C113.701 57.0435 111.51 58.7202 108.416 59.317C108.373 59.3312 108.316 59.3312 108.273 59.317C108.23 59.3028 108.187 59.2886 108.029 59.2175C108.717 58.1234 109.333 57.015 110.077 55.992C111.123 54.5852 112.269 53.2637 113.372 51.8996C113.5 51.7433 113.672 51.587 113.844 51.4733C114.431 51.0612 114.89 51.2175 114.918 51.9422C114.961 52.6385 114.918 53.3774 114.704 54.031Z" fill="white"/>
<path d="M57.643 51.7718C58.0583 51.8854 58.4594 52.0417 58.8747 52.0986C61.1663 52.397 63.4579 52.6527 65.7495 52.9511C66.4083 53.0364 67.0528 53.2069 67.6973 53.3632C69.459 53.8037 70.5618 54.8979 70.9199 56.6741C71.2923 58.5355 70.9628 60.2122 69.4733 61.5195C67.8262 62.9689 65.8068 63.4094 63.7014 63.381C61.0517 63.3526 58.6312 62.5995 56.6404 60.7522C55.7524 59.9281 55.1939 58.9618 55.5233 57.7256C55.867 56.4751 56.8696 55.9067 58.0297 55.6652C60.8369 55.0968 63.5295 55.6368 66.0932 56.8019C66.7234 57.0861 66.7091 57.6119 66.0646 57.9671C64.7039 58.7202 63.2717 59.0329 61.7392 58.4503C60.9658 58.1519 60.2067 57.7824 59.4046 57.5693C58.8461 57.4272 58.2159 57.3987 57.6573 57.4982C57.3422 57.5551 56.9269 57.9813 56.8982 58.2797C56.8553 58.5639 57.1847 59.0471 57.4711 59.1892C58.0583 59.4733 58.7172 59.7149 59.3617 59.7575C62.1975 59.9849 64.9331 59.6723 67.3966 58.1376C67.7689 57.9103 68.2273 57.3845 68.1986 57.0293C68.17 56.6599 67.6687 56.2051 67.2677 56.0062C65.5633 55.1963 63.6871 55.0684 61.8538 54.8694C60.0778 54.6847 58.2875 54.571 56.5258 54.2868C54.9217 54.0311 54.2915 52.9654 54.6496 51.3881C54.936 50.0808 55.7668 49.1714 56.8982 48.5036C58.3161 47.6794 59.8773 47.2673 61.4957 47.0258C64.1597 46.6279 66.8093 46.5568 69.4447 47.2389C69.9889 47.381 70.5189 47.6226 71.0345 47.8499C71.4785 48.0488 71.5644 48.4041 71.3639 48.8588C71.0201 49.6261 70.3756 49.9671 69.6165 50.024C67.9408 50.1803 66.2364 50.2229 64.5607 50.3792C62.5699 50.5639 60.5934 50.7913 58.6026 51.0471C58.2589 51.0897 57.9438 51.2886 57.6 51.4165C57.6287 51.5728 57.643 51.6723 57.643 51.7718Z" fill="white"/>
<path d="M90.6706 50.8481C89.4818 50.8055 88.6225 50.3081 88.0639 49.2993C87.6772 48.603 87.7631 48.2904 88.5508 48.1199C90.0404 47.8073 91.5299 47.4804 93.0481 47.3241C95.0103 47.1252 96.9868 47.0399 98.9633 46.9973C100.08 46.9689 101.642 48.603 101.727 49.7113C101.77 50.2939 101.384 50.4502 100.94 50.5071C99.7653 50.6634 98.5766 50.8197 97.4021 50.9334C96.4282 51.0328 95.4543 51.0897 94.4803 51.1181C94.108 51.1323 93.9218 51.2744 93.8358 51.6154C93.6926 52.127 93.5207 52.6385 93.3489 53.2069C94.8384 53.2069 96.242 53.2211 97.6313 53.2069C98.3044 53.1927 98.5193 53.5479 98.5193 54.1305C98.5193 54.2442 98.5193 54.3721 98.5193 54.4858C98.5049 55.7362 98.4047 55.8783 97.1586 55.9778C95.6834 56.0914 94.2082 56.1483 92.733 56.1909C92.3177 56.2051 92.0885 56.3046 91.9739 56.7309C91.7591 57.5692 91.5013 58.4076 91.2005 59.3881C91.8307 59.2886 92.332 59.2175 92.8189 59.1323C94.3658 58.8765 95.9126 58.6207 97.4737 58.3792C98.2758 58.2513 98.9203 58.635 99.264 59.3596C99.5791 60.0275 99.4789 60.5248 98.7771 61.1074C96.7862 62.7557 94.5376 63.9209 91.9739 64.3614C89.3959 64.7877 87.1902 62.7273 87.4337 60.0417C87.534 58.9476 87.9207 57.8818 88.1355 56.8019C88.2071 56.4609 88.1785 56.0914 88.1498 55.7362C88.1212 55.452 88.0066 55.182 87.9636 54.912C87.849 53.9458 88.0496 53.7184 88.9948 53.4911C89.267 53.42 89.5821 53.1927 89.7253 52.9511C90.069 52.3685 90.3412 51.7291 90.6276 51.1039C90.6562 51.0613 90.6562 50.9902 90.6706 50.8481Z" fill="white"/>
<path d="M83.0367 57.2852C83.0367 56.7594 83.1369 56.2194 83.0224 55.7221C82.3492 52.6813 81.6188 49.6546 80.9313 46.628C80.831 46.2159 80.7308 45.7896 80.7594 45.3775C80.8167 44.5392 81.2893 44.2976 81.9339 44.8234C82.65 45.3917 83.3661 46.017 83.9104 46.7417C85.8868 49.3704 86.5743 52.4113 86.5027 55.6226C86.4741 57.0294 86.1733 58.4219 85.9298 59.8145C85.8582 60.2123 85.6434 60.6102 85.4142 60.9654C84.2971 62.6848 82.3922 62.8837 81.1748 61.2354C79.8714 59.4734 78.8259 57.5409 77.6658 55.6653C77.2934 55.0543 76.9497 54.4148 76.5916 53.7754C76.5057 53.7896 76.4054 53.8038 76.3195 53.818C76.2478 54.4432 76.1333 55.0685 76.0903 55.6937C75.9757 57.5551 75.8898 59.4166 75.7895 61.278C75.7752 61.4912 75.7322 61.7043 75.675 61.9033C75.4601 62.7985 75.0161 63.239 74.2857 63.2816C73.5552 63.3242 72.8391 62.8269 72.6243 61.9885C72.4524 61.2923 72.3378 60.5534 72.3092 59.8287C72.2376 56.7168 72.5956 53.6475 73.4979 50.6777C73.6985 50.0383 73.9849 49.3846 74.3573 48.8162C74.9445 47.921 75.8182 47.8216 76.4913 48.6457C77.7374 50.1519 78.8975 51.7434 80.029 53.3349C80.8024 54.429 81.4755 55.6084 82.1917 56.7594C82.3492 57.0152 82.4924 57.2709 82.65 57.5267C82.7932 57.4273 82.9078 57.3562 83.0367 57.2852Z" fill="white"/>
<path d="M61.0518 34.9619C59.9632 34.0809 58.6886 33.3988 57.4711 32.6741C57.1131 32.461 56.6834 32.3189 56.2681 32.2479C52.5872 31.5232 47.2449 34.493 45.9559 38.0027C45.4403 39.3953 45.5979 40.7168 46.4142 41.9956C46.672 42.4077 46.7293 42.9477 46.8869 43.4308C47.0731 43.9992 47.202 44.6244 47.5171 45.1075C47.9181 45.7185 48.4623 45.6617 48.9063 45.0507C49.1068 44.7949 49.2501 44.4965 49.4219 44.2123C49.4363 44.2834 49.4363 44.3544 49.4506 44.4255C50.6966 44.4397 51.9713 44.6386 53.1744 44.4255C56.311 43.8855 58.7458 42.0809 60.7653 39.7221C61.1807 39.239 61.4671 38.5995 61.6676 37.9743C62.0257 36.8802 61.9684 35.7008 61.0518 34.9619ZM48.0327 40.1342C47.7032 39.58 47.7605 38.9548 48.1043 38.3864C49.0639 36.8233 50.4388 35.8429 52.3294 35.4734C50.8685 37.0507 49.4649 38.5711 48.0327 40.1342ZM59.5909 37.4201C59.4906 37.9459 59.2185 38.5285 58.8461 38.8979C56.7264 41.0862 54.0624 41.8109 51.0977 41.5835C51.0547 41.5125 50.9974 41.4557 50.9544 41.3846C51.4987 40.7168 52 39.9921 52.6015 39.3811C53.9622 37.9885 55.3657 36.6386 57.2706 35.985C57.4711 35.9139 57.6717 35.8571 57.8865 35.8145C58.8891 35.6439 59.7914 36.4397 59.5909 37.4201Z" fill="white"/>
<path d="M49.422 56.9156C49.6654 54.5852 49.9089 52.0133 50.1954 49.4413C50.2527 48.9582 50.4245 48.4751 50.6107 48.0204C50.8972 47.3383 51.3412 47.2104 51.8854 47.6936C52.2578 48.0204 52.5872 48.5035 52.6875 48.9724C52.9453 50.1376 53.1458 51.3454 53.2031 52.539C53.375 55.6936 53.4895 58.8481 53.5612 62.0026C53.5898 63.182 53.1315 63.6651 52.2292 63.7504C50.9545 63.8783 50.0522 63.4236 49.8946 62.3294C49.6654 60.6243 49.5938 58.9049 49.422 56.9156Z" fill="white"/>
</g>
<defs>
<clipPath id="clip0">
<rect width="143.024" height="76.9023" fill="white" transform="translate(0.00952148 0.603027)"/>
</clipPath>
</defs>
</svg>
