<svg width="175" height="43" viewBox="0 0 175 43" fill="none" xmlns="http://www.w3.org/2000/svg">
<g clip-path="url(#clip0)">
<path d="M0.895111 21.6721C1.07463 20.7426 1.19892 19.7849 1.44748 18.8695C2.22081 16.067 3.61555 13.6588 6.0598 12.0252C8.60072 10.3211 11.3073 9.89864 14.1935 11.0675C14.8563 11.3351 15.533 11.5745 16.1682 11.8844C17.2592 12.4054 18.3087 12.335 19.4272 11.8984C20.8358 11.3492 22.2719 10.7577 23.7495 10.5324C27.4504 9.96906 30.5299 11.2084 32.8223 14.2926C32.9051 14.4052 32.9604 14.5179 33.0432 14.6305C26.8705 18.8695 27.2985 28.0376 34.2584 31.4035C33.5542 32.9385 32.9742 34.544 32.118 35.9945C31.179 37.5859 30.1018 39.135 28.8728 40.5152C27.0638 42.5431 25.02 42.8952 22.5481 41.7967C20.9048 41.0644 19.2477 40.4166 17.4249 40.7687C16.4444 40.9518 15.464 41.2757 14.5387 41.67C11.5697 42.9093 9.66403 42.5572 7.49597 40.0927C4.2784 36.3889 2.23462 32.0372 1.30939 27.1645C1.14368 26.3195 1.0332 25.4745 0.895111 24.6154C0.895111 23.6296 0.895111 22.6438 0.895111 21.6721Z" fill="white"/>
<path d="M46.1207 13.4615C46.1207 23.0098 46.1207 32.5581 46.1207 42.1486C44.3393 42.1486 42.6545 42.1486 40.9146 42.1486C40.9146 29.1641 40.9146 16.2077 40.9146 3.15269C41.5912 3.15269 42.2541 3.15269 42.9031 3.15269C44.215 3.15269 45.5269 3.18086 46.8388 3.13861C47.3911 3.12453 47.6259 3.29352 47.833 3.8146C51.3544 12.87 54.8896 21.9254 58.4248 30.9808C58.8529 32.0793 59.2948 33.1777 59.7919 34.4875C59.9852 34.0509 60.1095 33.7974 60.2062 33.5298C64.0728 23.6294 67.9394 13.7291 71.7922 3.8146C71.9994 3.29352 72.2341 3.11044 72.7865 3.12453C74.6093 3.16678 76.4183 3.13861 78.2412 3.13861C78.4621 3.13861 78.6969 3.13861 78.9454 3.13861C78.9454 16.1654 78.9454 29.1218 78.9454 42.1205C77.164 42.1205 75.3826 42.1205 73.5184 42.1205C73.5184 32.5299 73.5184 22.9816 73.5184 13.4192C73.4631 13.4052 73.4079 13.3911 73.3527 13.3911C73.256 13.5882 73.1593 13.7995 73.0765 13.9966C69.4722 23.1506 65.8818 32.3046 62.2914 41.4727C62.0704 42.0219 61.8081 42.205 61.2419 42.1768C60.2614 42.1346 59.2671 42.1205 58.2729 42.1768C57.7481 42.205 57.5134 42.0078 57.3338 41.529C53.9782 32.9524 50.6087 24.3899 47.2392 15.8134C46.9216 15.0106 46.604 14.2079 46.2864 13.4192C46.2588 13.4333 46.1897 13.4474 46.1207 13.4615Z" fill="white"/>
<path d="M84.6625 13.6587C84.8973 13.6446 85.0492 13.6165 85.2011 13.6165C86.872 13.6165 88.5567 13.6165 90.3243 13.6165C90.3243 13.9404 90.3243 14.2079 90.3243 14.4896C90.3243 19.8693 90.3105 25.249 90.3381 30.6288C90.3381 31.4033 90.3796 32.1779 90.5315 32.9243C91.1391 35.9803 93.3486 37.6562 96.4695 37.4731C100.032 37.2619 102.311 34.9804 102.615 31.3329C102.67 30.6288 102.697 29.9246 102.697 29.2345C102.711 24.3477 102.697 19.4468 102.697 14.56C102.697 14.2784 102.697 13.9967 102.697 13.6728C104.589 13.6728 106.426 13.6728 108.415 13.6728C108.415 23.1648 108.415 32.6286 108.415 42.1346C106.73 42.1346 104.976 42.1346 103.126 42.1346C103.126 40.5291 103.126 38.9378 103.126 37.3323C103.084 37.3182 103.029 37.3041 102.987 37.29C102.905 37.4027 102.808 37.5013 102.739 37.628C101.192 40.8108 98.5685 42.3459 95.1852 42.543C93.9424 42.6134 92.6443 42.5149 91.4291 42.2191C87.7282 41.3319 85.2839 38.2759 84.8282 34.1495C84.7316 33.3186 84.6901 32.4736 84.6901 31.6287C84.6763 25.8969 84.6901 20.1651 84.6901 14.4333C84.6625 14.1798 84.6625 13.9404 84.6625 13.6587Z" fill="white"/>
<path d="M134.708 22.1228C133.05 22.1228 131.449 22.1369 129.847 22.1087C129.709 22.1087 129.474 21.9115 129.446 21.7707C128.756 18.3063 125.704 17.2078 122.472 17.8415C121.602 18.0105 120.691 18.4189 120.001 18.9682C118.233 20.4046 118.44 23.0382 120.429 24.1226C121.464 24.6859 122.652 24.9676 123.798 25.3055C126.132 25.9956 128.521 26.5026 130.813 27.3194C133.009 28.094 134.569 29.6713 135.011 32.1217C135.633 35.6284 134.473 38.431 131.614 40.473C129.778 41.7827 127.679 42.3742 125.469 42.5432C122.928 42.7404 120.415 42.515 118.04 41.4729C114.85 40.0787 113.054 37.6141 112.585 34.1215C112.571 34.023 112.571 33.9385 112.571 33.8399C112.571 33.7976 112.599 33.7554 112.613 33.6709C114.435 33.6709 116.272 33.6709 118.136 33.6709C118.164 33.7413 118.205 33.8117 118.233 33.8962C118.716 36.3748 120.291 37.6705 122.68 38.0085C124.337 38.2338 125.994 38.1634 127.527 37.3747C129.115 36.572 129.805 35.051 129.405 33.347C129.129 32.2062 128.341 31.5303 127.32 31.2063C125.966 30.7698 124.571 30.474 123.204 30.0797C121.464 29.5727 119.683 29.1784 118.012 28.4742C115.223 27.3053 113.552 25.1647 113.4 21.996C113.248 18.7288 114.615 16.222 117.432 14.7433C121.561 12.5886 125.842 12.5181 130.054 14.5038C132.94 15.9122 134.68 18.8696 134.708 22.1228Z" fill="white"/>
<path d="M174.755 23.2634C172.918 23.2634 171.136 23.2634 169.3 23.2634C169.148 22.841 169.01 22.3199 168.803 21.8411C167.767 19.4469 165.958 18.0809 163.389 17.8978C160.559 17.6866 158.377 18.8836 156.954 21.3763C155.629 23.7141 155.352 26.2631 155.518 28.9107C155.642 30.7556 156.057 32.5019 156.968 34.1215C159.537 38.6985 165.972 38.2478 168.029 35.0228C168.499 34.2905 168.775 33.4314 169.176 32.6428C169.272 32.4597 169.479 32.1921 169.631 32.178C171.302 32.1498 172.987 32.1639 174.81 32.1639C174.575 33.1216 174.437 34.0088 174.147 34.8538C173.097 37.8816 171.109 40.0786 168.195 41.3038C164.563 42.8389 160.876 42.7966 157.258 41.2897C153.972 39.9096 151.886 37.3324 150.795 33.9525C149.47 29.8261 149.442 25.6576 150.782 21.5312C152.48 16.3205 156.664 13.1659 162.05 12.9687C165.792 12.8279 169.162 13.7574 171.827 16.6162C173.526 18.447 174.437 20.644 174.755 23.2634Z" fill="white"/>
<path d="M139.803 13.6588C141.667 13.6588 143.49 13.6588 145.368 13.6588C145.368 23.1649 145.368 32.6287 145.368 42.1347C143.518 42.1347 141.695 42.1347 139.803 42.1347C139.803 32.6709 139.803 23.2071 139.803 13.6588Z" fill="white"/>
<path d="M25.531 0.20954C25.9176 4.12463 23.3353 9.12411 18.5158 9.95501C17.3835 10.1522 17.3006 10.0818 17.3144 8.8847C17.342 4.84286 20.9601 0.688363 24.8819 0.20954C25.0891 0.181374 25.2962 0.20954 25.531 0.20954Z" fill="white"/>
<path d="M142.689 9.56053C140.825 9.54644 139.32 7.99731 139.347 6.11018C139.375 4.19489 140.88 2.70208 142.758 2.73025C144.609 2.75842 146.073 4.2653 146.073 6.13835C146.059 8.03956 144.554 9.57461 142.689 9.56053Z" fill="white"/>
</g>
<defs>
<clipPath id="clip0">
<rect width="173.928" height="42.4041" fill="white" transform="translate(0.895142 0.195557)"/>
</clipPath>
</defs>
</svg>
