<svg width="1440" height="530" viewBox="0 0 1440 530" fill="none" xmlns="http://www.w3.org/2000/svg">
<g clip-path="url(#clip0)">
<path d="M1097.84 278.116C1123.01 283.79 1229.85 223.725 1232.87 221.924C1157.69 294.833 1174.64 433.493 1191.62 427.023C1208.59 420.554 1296.98 309.222 1302.8 300.721C1308.64 291.733 1272.93 271.842 1285.53 274.436C1298.13 277.029 1333.39 276.861 1333.39 276.861L1324.15 246.585C1325.83 252.045 1334.46 274.961 1343.19 257.323C1353.48 237.81 1400.42 219.665 1400.42 219.665C1400.42 219.665 1397.04 392.478 1333.11 542.676C1333.11 542.676 1429.95 534.88 1471.67 542.369C1471.67 542.369 1541.35 346.529 1525.2 211.33C1525.2 211.33 1483.42 -7.26281 1447 25.5856C1420.83 49.1809 1417.51 85.6618 1417.57 103.745C1413.77 82.052 1395.08 35.6593 1304.12 14.4347C1212.18 -6.83938 1144.45 25.3998 1117.14 42.5847C1111.08 46.1869 1112.1 55.0344 1118.84 57.3305L1165.46 74.3533L1185.73 70.494L1194.78 85.1237L1195.27 85.1484L1221.38 72.3007L1227.95 97.0668C1231.83 97.7522 1236.21 98.4624 1240.11 98.6604C1254.76 99.4029 1269.66 95.2713 1282.36 86.142L1308.05 120.184C1306.1 120.085 1295.4 118.566 1280.75 117.823C1254.38 116.487 1214.63 118.381 1187.69 138.028C1145.45 169.604 1072.67 272.443 1097.84 278.116Z" fill="#21C9D1"/>
</g>
<path d="M392 464C307.2 464 92.6667 453.333 -4 448V506H1442V448C1439.33 440 1423.2 428.8 1380 448C1326 472 1114 448 1082 448C1050 448 842 424 756 424C622 424 498 464 392 464Z" fill="#21C9D1"/>
<defs>
<clipPath id="clip0">
<rect width="361" height="530" fill="white" transform="matrix(-1 0 0 1 1440 0)"/>
</clipPath>
</defs>
</svg>
