<svg width="9" height="16" viewBox="0 0 9 16" fill="none" xmlns="http://www.w3.org/2000/svg">
<path d="M2 15C1.76635 15.0005 1.53991 14.9191 1.36 14.77C1.25874 14.6861 1.17504 14.583 1.11369 14.4666C1.05234 14.3503 1.01454 14.223 1.00246 14.092C0.990387 13.961 1.00427 13.8289 1.04331 13.7033C1.08236 13.5777 1.1458 13.4611 1.23 13.36L5.71 8L1.39 2.63C1.30693 2.52771 1.2449 2.41002 1.20747 2.28368C1.17004 2.15734 1.15794 2.02485 1.17188 1.89382C1.18582 1.76279 1.22552 1.63581 1.28869 1.52017C1.35187 1.40454 1.43727 1.30252 1.54 1.22C1.64347 1.12897 1.76463 1.0603 1.89589 1.01831C2.02716 0.976319 2.16568 0.961916 2.30277 0.976001C2.43987 0.990085 2.57257 1.03236 2.69255 1.10016C2.81253 1.16796 2.91721 1.25983 3 1.37L7.83 7.37C7.97708 7.54893 8.05749 7.77338 8.05749 8.005C8.05749 8.23663 7.97708 8.46107 7.83 8.64L2.83 14.64C2.72968 14.761 2.60225 14.8567 2.45804 14.9192C2.31383 14.9818 2.15691 15.0095 2 15Z" fill="#FFFEF8"/>
</svg>
