<svg width="245" height="360" viewBox="0 0 245 360" fill="none" xmlns="http://www.w3.org/2000/svg">
<g clip-path="url(#clip0)">
<path d="M12.7837 188.909C29.8657 192.763 102.374 151.964 104.43 150.741C53.408 200.264 64.9111 294.448 76.4309 290.054C87.9506 285.659 147.939 210.038 151.886 204.263C155.851 198.158 131.617 184.648 140.166 186.409C148.716 188.17 172.644 188.057 172.644 188.057L166.378 167.492C167.518 171.201 173.374 186.766 179.298 174.785C186.283 161.531 218.141 149.207 218.141 149.207C218.141 149.207 215.841 266.589 172.456 368.61C172.456 368.61 238.18 363.314 266.496 368.402C266.496 368.402 313.78 235.378 302.822 143.545C302.822 143.545 274.47 -4.93323 249.747 17.3789C231.989 33.4059 229.735 58.1854 229.777 70.4685C227.202 55.7335 214.513 24.2214 152.779 9.80472C90.383 -4.64562 44.4171 17.2527 25.8829 28.9254C21.7717 31.3722 22.4636 37.3818 27.0362 38.9415L58.6789 50.5041L72.4345 47.8827L78.5756 57.8198L78.907 57.8367L96.6272 49.1099L101.09 65.9322C103.725 66.3977 106.69 66.8801 109.342 67.0146C119.284 67.5189 129.394 64.7126 138.015 58.5116L155.449 81.6344C154.123 81.5672 146.866 80.5352 136.924 80.0308C119.028 79.123 92.0492 80.4099 73.7624 93.7547C45.0969 115.203 -4.29837 185.055 12.7837 188.909Z" fill="#3ECEDD"/>
</g>
<defs>
<clipPath id="clip0">
<rect width="245" height="360" fill="white" transform="matrix(-1 0 0 1 245 0)"/>
</clipPath>
</defs>
</svg>
