<svg width="311" height="499" viewBox="0 0 311 499" fill="none" xmlns="http://www.w3.org/2000/svg">
<path d="M317 20.7076V491.805C317 499.627 310.709 507.955 302.902 510.093C261.393 521.741 219.885 527.368 178.376 529C265.437 430.752 279.311 236.73 279.311 236.73C279.311 236.73 242.464 202.743 226.4 216.417C212.302 228.346 213.032 205.838 213.425 200.042L210.336 230.091C210.336 230.091 179.612 217.486 169.277 210.677C158.942 203.868 183.038 234.592 174.613 240.275C171.86 242.076 157.706 250.235 139.17 260.42H139.114C130.239 265.26 120.354 270.605 110.3 275.951H110.243C97.5493 282.647 84.5743 289.343 72.7228 295.083C52.8952 304.705 36.5502 311.683 30.9333 311.514C25.7097 311.402 25.3726 299.36 30.0346 281.634C40.7067 241.345 77.4971 171.513 141.979 145.628C141.979 145.628 72.2734 154.519 30.484 152.212C17.6213 151.537 7.39867 149.792 2.62434 146.36C-5.85712 140.339 7.11782 125.54 28.6304 109.446C58.3436 87.332 104.233 62.8543 132.149 55.8767C162.986 48.1676 198.484 60.8848 221.233 71.6325C233.983 77.6534 242.745 83.0554 244.43 83.8432L234.151 44.1724L201.517 51.9378L163.941 17.2188C207.584 16.431 251.227 11.4229 294.926 0C303.576 7.03383 310.821 13.9551 317 20.7076Z" fill="#21C9D1"/>
</svg>
