<svg width="19" height="17" viewBox="0 0 19 17" fill="none" xmlns="http://www.w3.org/2000/svg">
<path d="M5.58004 16C7.05874 16.0495 8.53235 15.802 9.91378 15.2723C11.2952 14.7426 12.5565 13.9413 13.6229 12.9158C14.6894 11.8903 15.5395 10.6615 16.123 9.30188C16.7065 7.94228 17.0115 6.4795 17.02 5C17.6977 4.16141 18.2009 3.19583 18.5 2.16C18.5224 2.07816 18.5206 1.99161 18.4949 1.91077C18.4691 1.82994 18.4206 1.75826 18.3551 1.70437C18.2896 1.65048 18.2099 1.61667 18.1256 1.60703C18.0413 1.59738 17.956 1.6123 17.88 1.65C17.5255 1.82065 17.1264 1.87578 16.7389 1.80761C16.3514 1.73943 15.995 1.5514 15.72 1.27C15.369 0.885579 14.9444 0.575531 14.4713 0.358228C13.9982 0.140924 13.4863 0.020787 12.966 0.00493411C12.4456 -0.0109188 11.9274 0.0778352 11.442 0.265937C10.9566 0.454039 10.5138 0.737662 10.14 1.1C9.62824 1.59566 9.25336 2.21529 9.05185 2.89868C8.85034 3.58206 8.82905 4.30595 8.99004 5C5.64004 5.2 3.34004 3.61 1.50004 1.43C1.44476 1.3674 1.37246 1.32225 1.29194 1.30007C1.21143 1.27789 1.1262 1.27963 1.04667 1.30508C0.967128 1.33053 0.896723 1.37859 0.844047 1.4434C0.791372 1.5082 0.758707 1.58694 0.750041 1.67C0.399511 3.61442 0.652371 5.61955 1.47466 7.41607C2.29695 9.21259 3.64929 10.7145 5.35004 11.72C4.20968 13.0278 2.60825 13.8447 0.880041 14C0.787454 14.0154 0.701983 14.0593 0.635593 14.1256C0.569202 14.1919 0.525214 14.2774 0.509785 14.37C0.494356 14.4625 0.508258 14.5576 0.549545 14.6419C0.590832 14.7262 0.657438 14.7954 0.740041 14.84C2.24356 15.5914 3.89927 15.9882 5.58004 16Z" fill="#FFFEF8"/>
</svg>
